<svg width="188" height="52" viewBox="0 0 188 52" fill="none" xmlns="http://www.w3.org/2000/svg">
<g clip-path="url(#clip0_9_198)">
<path d="M83.4017 40.179C80.1767 35.9953 78.4312 30.8597 78.439 25.5773C78.439 19.2184 80.9639 13.1197 85.4588 8.6218C89.9538 4.12392 96.0508 1.59484 102.41 1.59062C104.013 1.59522 105.611 1.7605 107.182 2.08381" fill="#FFC94D"/>
<path d="M83.4017 40.179C80.1767 35.9953 78.4312 30.8597 78.439 25.5773C78.439 19.2184 80.9639 13.1197 85.4588 8.6218C89.9538 4.12392 96.0508 1.59484 102.41 1.59062C104.013 1.59522 105.611 1.7605 107.182 2.08381" stroke="#FFC94D" stroke-linecap="round" stroke-linejoin="round"/>
<path d="M85.7241 45.7146C87.3141 45.7146 88.6031 44.4256 88.6031 42.8355C88.6031 41.2455 87.3141 39.9565 85.7241 39.9565C84.134 39.9565 82.845 41.2455 82.845 42.8355C82.845 44.4256 84.134 45.7146 85.7241 45.7146Z" fill="#FFC94D" stroke="#FFC94D" stroke-miterlimit="10"/>
<path d="M111.428 4.27893C111.956 4.27893 112.383 3.85165 112.383 3.32456C112.383 2.79748 111.956 2.37019 111.428 2.37019C110.901 2.37019 110.474 2.79748 110.474 3.32456C110.474 3.85165 110.901 4.27893 111.428 4.27893Z" fill="#FFC94D"/>
<path d="M121.529 11.071C124.75 15.2631 126.494 20.4022 126.492 25.6887C126.487 32.0476 123.958 38.1446 119.46 42.6395C114.963 47.1344 108.864 49.6594 102.505 49.6594C100.902 49.6619 99.3036 49.502 97.7332 49.1822" fill="#FFC94D"/>
<path d="M121.529 11.071C124.75 15.2631 126.494 20.4022 126.492 25.6887C126.487 32.0476 123.958 38.1446 119.46 42.6395C114.963 47.1344 108.864 49.6594 102.505 49.6594C100.902 49.6619 99.3036 49.502 97.7332 49.1822" stroke="#FFC94D" stroke-linecap="round" stroke-linejoin="round"/>
<path d="M119.191 11.3095C120.781 11.3095 122.07 10.0205 122.07 8.43046C122.07 6.84042 120.781 5.55144 119.191 5.55144C117.601 5.55144 116.312 6.84042 116.312 8.43046C116.312 10.0205 117.601 11.3095 119.191 11.3095Z" fill="#FFC94D" stroke="#FFC94D" stroke-miterlimit="10"/>
<path d="M93.4862 48.8957C94.0133 48.8957 94.4406 48.4684 94.4406 47.9413C94.4406 47.4142 94.0133 46.9869 93.4862 46.9869C92.9591 46.9869 92.5318 47.4142 92.5318 47.9413C92.5318 48.4684 92.9591 48.8957 93.4862 48.8957Z" fill="#FFC94D"/>
<path d="M17.8786 -4.57764e-05L26.5474 22.2686L35.2958 -4.57764e-05H53.1744L33.228 51.17H19.9463L2.47955e-05 -4.57764e-05H17.8786Z" fill="#FFC94D"/>
<path d="M56.6049 0H73.9427V51.1701H56.6049V0Z" fill="#FFC94D"/>
<path d="M131.179 0H148.532V51.1701H131.179V0Z" fill="#FFC94D"/>
<path d="M152.106 0H169.142V37.7453H183.266V51.1701H152.106V0Z" fill="#FFC94D"/>
</g>
<defs>
<clipPath id="clip0_9_198">
<rect width="187.677" height="51.1702" fill="white"/>
</clipPath>
</defs>
</svg>
