<svg width="21" height="23" viewBox="0 0 21 23" fill="none" xmlns="http://www.w3.org/2000/svg">
<circle cx="10.5" cy="11.5" r="9.5" stroke="#FFC94D" stroke-width="2"/>
<path d="M10.48 6.38C9.6 6.38 8.74 6.60667 7.9 7.06L7.38 5.62C7.83333 5.38 8.34 5.18667 8.9 5.04C9.47333 4.89333 10.08 4.82 10.72 4.82C11.48 4.82 12.1 4.92667 12.58 5.14C13.0733 5.34 13.4667 5.6 13.76 5.92C14.0533 6.24 14.2533 6.6 14.36 7C14.48 7.38667 14.54 7.76 14.54 8.12C14.54 8.57333 14.4533 8.98 14.28 9.34C14.1067 9.68667 13.8933 10.0133 13.64 10.32C13.3867 10.6267 13.1067 10.92 12.8 11.2C12.4933 11.48 12.2133 11.7733 11.96 12.08C11.7067 12.3733 11.4933 12.7 11.32 13.06C11.1467 13.4067 11.06 13.8 11.06 14.24C11.06 14.3067 11.06 14.38 11.06 14.46C11.06 14.54 11.0667 14.6133 11.08 14.68H9.52C9.46667 14.4133 9.44 14.1333 9.44 13.84C9.44 13.4133 9.51333 13.0267 9.66 12.68C9.82 12.3333 10.02 12.0133 10.26 11.72C10.5 11.4133 10.7533 11.1333 11.02 10.88C11.2867 10.6133 11.54 10.3467 11.78 10.08C12.02 9.81333 12.2133 9.53333 12.36 9.24C12.52 8.94667 12.6 8.62667 12.6 8.28C12.6 7.72 12.42 7.26667 12.06 6.92C11.7 6.56 11.1733 6.38 10.48 6.38ZM11.74 17.92C11.74 18.28 11.62 18.5933 11.38 18.86C11.14 19.1267 10.8133 19.26 10.4 19.26C9.98667 19.26 9.66 19.1267 9.42 18.86C9.18 18.5933 9.06 18.28 9.06 17.92C9.06 17.56 9.18 17.2467 9.42 16.98C9.66 16.7133 9.98667 16.58 10.4 16.58C10.8133 16.58 11.14 16.7133 11.38 16.98C11.62 17.2467 11.74 17.56 11.74 17.92Z" fill="#FFC94D"/>
</svg>
