<svg xmlns="http://www.w3.org/2000/svg" viewBox="0 0 149.31 37.37"><defs><style>.cls-1{fill:#666;}</style></defs><g id="Layer_2" data-name="Layer 2"><g id="Слой_1" data-name="Слой 1"><polygon class="cls-1" points="6.19 0.09 0.04 0.07 0.65 1.55 0.67 28.96 0 30.51 6.21 30.51 5.54 28.98 5.54 15.86 5.54 1.62 6.19 0.09"/><path class="cls-1" d="M18.35,25.66,11,15.23,20.72,4A10.6,10.6,0,0,1,26.24.38l.25-.27H17.14l.65,1.51L5.54,15.86,13,26.47c2.78,4,4.89,6.59,8.28,8.57a18,18,0,0,0,11.34,2.17c.09-.18.23-.49.34-.72a17.29,17.29,0,0,1-8.95-4A30.45,30.45,0,0,1,18.35,25.66Z"/><polygon class="cls-1" points="114.43 27.45 114.43 16.87 124.24 16.87 125.51 13.82 114.43 13.82 114.43 3.12 123.94 3.12 125.56 3.7 127.06 0.09 108.94 0.09 109.59 1.59 109.59 28.96 108.94 30.51 125.51 30.51 127.08 26.78 125.4 27.45 114.43 27.45"/><polygon class="cls-1" points="147.63 27.45 136.66 27.45 136.66 16.87 136.64 1.68 137.31 0.09 131.17 0.09 131.82 1.59 131.82 28.96 131.17 30.51 147.72 30.51 149.31 26.78 147.63 27.45"/><polygon class="cls-1" points="33.71 27.64 33.71 17.05 43.49 17.05 44.77 14 33.71 14 33.71 3.3 43.2 3.3 44.81 3.88 46.34 0.27 28.22 0.27 28.84 1.77 28.84 29.14 28.22 30.68 44.77 30.68 46.36 26.96 44.66 27.64 33.71 27.64"/><path class="cls-1" d="M72.36,27.52l-7.9-11.17C68.45,15.61,72,13.12,72,8S67.6-.09,60.38,0L55.47.05h0L50.13.11l.65,1.51V29l-1,1.57H56.3L55.56,29V2.63l0-.07c3.1-.32,6-.54,7.94.34a5.78,5.78,0,0,1,2.2,9.26c-2,2.17-5.23,2.22-8.7,1.68l0,.07a1.45,1.45,0,0,1-.27-.05l10,14.29C68.54,31,72,30.71,75,30.6l0-.36A8.39,8.39,0,0,1,72.36,27.52Z"/><path class="cls-1" d="M100.53,1.73V19.49L83.39.14l-5.34,0-.15,0v0H77L78.5,2V29l-.67,1.57h5L82.16,29V6.1l12.31,14a0,0,0,0,0,0,0l5.34,6.14a4.89,4.89,0,0,0,.65.7v0l3.21,3.61.43,0V1.73l.69-1.57h-5Z"/></g></g></svg>