<svg xmlns="http://www.w3.org/2000/svg" viewBox="0 0 97.84 26.68"><defs><style>.cls-1,.cls-3{fill:#78c151;}.cls-1,.cls-2{stroke:#78c151;}.cls-1{stroke-linecap:round;stroke-linejoin:round;}.cls-2{fill:none;}.cls-2,.cls-4,.cls-5{stroke-miterlimit:10;}.cls-4{fill:#ffe07d;}.cls-4,.cls-5{stroke:#754c24;stroke-width:0.2px;}.cls-5{fill:#e69641;}.cls-6{fill:#754c24;}</style></defs><g id="Layer_2" data-name="Layer 2"><g id="Слой_1" data-name="Слой 1"><path class="cls-1" d="M43.68,21.09A12.5,12.5,0,0,1,53.59,1a12.77,12.77,0,0,1,2.5.25"/><circle class="cls-2" cx="44.89" cy="22.47" r="1.5"/><circle class="cls-3" cx="58.29" cy="1.87" r="0.5"/><path class="cls-1" d="M63.56,5.92A12.5,12.5,0,0,1,53.64,26a12.19,12.19,0,0,1-2.5-.25"/><circle class="cls-2" cx="62.34" cy="4.53" r="1.5"/><circle class="cls-3" cx="48.94" cy="25.13" r="0.5"/><path class="cls-3" d="M9.32,0l4.52,11.6L18.4,0h9.32L17.32,26.68H10.4L0,0Z"/><path class="cls-3" d="M28.32,0h9V26.68h-9Z"/><path class="cls-3" d="M69.76,0h9V26.68h-9Z"/><path class="cls-3" d="M81.6,0h8.88V19.68h7.36v7H81.6Z"/><path class="cls-4" d="M58.18,8.41a9.1,9.1,0,0,1-.48.82h0c-.29.19-.57.39-.84.58A4.9,4.9,0,0,0,55,8.7a3.17,3.17,0,0,0-.44-.12,7,7,0,0,1,.51-1.07h0a6.08,6.08,0,0,1,.47-.66A3.78,3.78,0,0,1,57.9,5.51a.3.3,0,0,1,.36.21A4.23,4.23,0,0,1,58.18,8.41Z"/><path class="cls-4" d="M52,8.66a4.94,4.94,0,0,0-1.84,1,3.5,3.5,0,0,0-.28.27c-.19-.27-.4-.57-.58-.86s-.26-.44-.36-.65a4.23,4.23,0,0,1-.08-2.69.29.29,0,0,1,.35-.21A3.75,3.75,0,0,1,51.58,6.9a6,6,0,0,1,.42.57A11.83,11.83,0,0,0,52,8.66Z"/><path class="cls-4" d="M55.1,7.51h0a7,7,0,0,0-.51,1.07,4.58,4.58,0,0,0-1.12-.13,4.83,4.83,0,0,0-.94.09,3.89,3.89,0,0,0-.49.12,11.83,11.83,0,0,1,0-1.19,4.87,4.87,0,0,1,0-.55,4.25,4.25,0,0,1,1.31-2.34.31.31,0,0,1,.42,0,3.78,3.78,0,0,1,1.3,2.35A3.9,3.9,0,0,1,55.1,7.51Z"/><path class="cls-4" d="M61.2,18.08A4.15,4.15,0,0,1,58.52,18a6.58,6.58,0,0,1-.68-.37h0a10.78,10.78,0,0,0-.7-1,4.91,4.91,0,0,0,1-1.76l.12-.46a6.94,6.94,0,0,1,1.14.54h0a7.37,7.37,0,0,1,.67.47,3.8,3.8,0,0,1,1.33,2.33A.3.3,0,0,1,61.2,18.08Z"/><path class="cls-4" d="M61.36,9.07A3.8,3.8,0,0,1,60,11.4a5.56,5.56,0,0,1-.58.41h0c-.42,0-.88,0-1.3.06a5.12,5.12,0,0,0-1-1.8,3.19,3.19,0,0,0-.26-.26c.27-.19.55-.39.84-.58h0a8.63,8.63,0,0,1,.77-.43,4.13,4.13,0,0,1,2.68-.08A.29.29,0,0,1,61.36,9.07Z"/><path class="cls-4" d="M62.34,13.57a4,4,0,0,1-2.93,1.35h0a6.94,6.94,0,0,0-1.14-.54,4.93,4.93,0,0,0,.11-1,5.23,5.23,0,0,0-.1-1,4.77,4.77,0,0,0-.13-.51c.42,0,.88-.06,1.3-.06h0a4.8,4.8,0,0,1,.55,0,4.19,4.19,0,0,1,2.34,1.31A.3.3,0,0,1,62.34,13.57Z"/><path class="cls-4" d="M52.58,18.17a5.82,5.82,0,0,1-.5,1h0a4.27,4.27,0,0,1-.47.67,3.78,3.78,0,0,1-2.32,1.34.3.3,0,0,1-.36-.22A4.2,4.2,0,0,1,49,18.32a7.86,7.86,0,0,1,.47-.83c.25-.15.49-.32.72-.48a4.82,4.82,0,0,0,1.95,1.06A3,3,0,0,0,52.58,18.17Z"/><path class="cls-4" d="M58.29,21a.31.31,0,0,1-.36.22,3.83,3.83,0,0,1-2.33-1.34c-.15-.18-.28-.38-.41-.57h0A10.94,10.94,0,0,0,55.13,18a4.81,4.81,0,0,0,1.7-1,3.11,3.11,0,0,0,.31-.32,10.78,10.78,0,0,1,.7,1h0a6.25,6.25,0,0,1,.37.65A4.2,4.2,0,0,1,58.29,21Z"/><path class="cls-4" d="M55.19,19.26h0c0,.19,0,.37,0,.55a4.23,4.23,0,0,1-1.32,2.34.31.31,0,0,1-.42,0,3.86,3.86,0,0,1-1.3-2.35c0-.2,0-.39-.05-.59h0a5.82,5.82,0,0,0,.5-1,4.41,4.41,0,0,0,.89.09,4.91,4.91,0,0,0,1.16-.14,4.13,4.13,0,0,0,.5-.15A10.94,10.94,0,0,1,55.19,19.26Z"/><path class="cls-4" d="M49.92,10a5,5,0,0,0-1.12,1.88c0,.13-.08.27-.11.41a7.18,7.18,0,0,1-.92-.46h0a4.88,4.88,0,0,1-.66-.46A3.83,3.83,0,0,1,45.77,9,.31.31,0,0,1,46,8.65a4.2,4.2,0,0,1,2.68.08,7.58,7.58,0,0,1,.67.38C49.52,9.4,49.73,9.7,49.92,10Z"/><path class="cls-4" d="M50.2,17c-.23.16-.47.33-.72.48a6,6,0,0,1-.76.44A4.2,4.2,0,0,1,46,18a.31.31,0,0,1-.22-.36,3.81,3.81,0,0,1,1.34-2.32,5.56,5.56,0,0,1,.57-.42h0a9.66,9.66,0,0,0,1.07,0A4.91,4.91,0,0,0,50,16.79Z"/><path class="cls-4" d="M48.81,14.87a9.66,9.66,0,0,1-1.07,0h0a5,5,0,0,1-.55,0,4.23,4.23,0,0,1-2.34-1.32.3.3,0,0,1,0-.41,3.82,3.82,0,0,1,2.35-1.31l.58,0h0a7.18,7.18,0,0,0,.92.46,4.92,4.92,0,0,0-.12,1.09,4.83,4.83,0,0,0,.12,1.08A3.17,3.17,0,0,0,48.81,14.87Z"/><path class="cls-5" d="M58.38,13.35a4.93,4.93,0,0,1-.11,1l-.12.46a4.91,4.91,0,0,1-1,1.76,3.11,3.11,0,0,1-.31.32,4.81,4.81,0,0,1-1.7,1,4.13,4.13,0,0,1-.5.15,4.91,4.91,0,0,1-1.16.14,4.41,4.41,0,0,1-.89-.09,3,3,0,0,1-.43-.1A4.82,4.82,0,0,1,50.2,17L50,16.79a4.91,4.91,0,0,1-1.16-1.92,3.17,3.17,0,0,1-.12-.44,4.83,4.83,0,0,1-.12-1.08,4.92,4.92,0,0,1,.12-1.09c0-.14.07-.28.11-.41A5,5,0,0,1,49.92,10a3.5,3.5,0,0,1,.28-.27,4.94,4.94,0,0,1,1.84-1,3.89,3.89,0,0,1,.49-.12,4.83,4.83,0,0,1,.94-.09,4.58,4.58,0,0,1,1.12.13A3.17,3.17,0,0,1,55,8.7a4.9,4.9,0,0,1,1.83,1.11,3.19,3.19,0,0,1,.26.26,5.12,5.12,0,0,1,1,1.8,4.77,4.77,0,0,1,.13.51A5.23,5.23,0,0,1,58.38,13.35Z"/><path class="cls-6" d="M52.32,10.23a.3.3,0,0,0,0-.6.3.3,0,0,0,0,.6Z"/><path class="cls-6" d="M53.47,10.2a.3.3,0,0,0,0-.6.3.3,0,0,0,0,.6Z"/><path class="cls-6" d="M54.68,10.23a.3.3,0,0,0,0-.6.3.3,0,0,0,0,.6Z"/><path class="cls-6" d="M51.08,11.33a.3.3,0,0,0,0-.6.3.3,0,0,0,0,.6Z"/><path class="cls-6" d="M50.48,12.48a.3.3,0,0,0,0-.6.3.3,0,0,0,0,.6Z"/><path class="cls-6" d="M49.89,13.64a.3.3,0,0,0,0-.6.3.3,0,0,0,0,.6Z"/><path class="cls-6" d="M50.48,14.79a.3.3,0,0,0,0-.6.3.3,0,0,0,0,.6Z"/><path class="cls-6" d="M51.1,15.92a.3.3,0,0,0,0-.6.3.3,0,0,0,0,.6Z"/><path class="cls-6" d="M51.1,13.67a.3.3,0,0,0,0-.6.3.3,0,0,0,0,.6Z"/><path class="cls-6" d="M51.72,12.51a.3.3,0,0,0,0-.6.3.3,0,0,0,0,.6Z"/><path class="cls-6" d="M52.29,11.38a.3.3,0,0,0,0-.6.3.3,0,0,0,0,.6Z"/><path class="cls-6" d="M53.47,11.35a.3.3,0,0,0,0-.6.3.3,0,0,0,0,.6Z"/><path class="cls-6" d="M52.88,12.51a.3.3,0,0,0,0-.6.3.3,0,0,0,0,.6Z"/><path class="cls-6" d="M52.29,13.64a.3.3,0,0,0,0-.6.3.3,0,0,0,0,.6Z"/><path class="cls-6" d="M51.7,14.76a.3.3,0,0,0,0-.6.3.3,0,0,0,0,.6Z"/><path class="cls-6" d="M52.29,17.08a.3.3,0,0,0,0-.6.3.3,0,0,0,0,.6Z"/><path class="cls-6" d="M53.5,17.05a.3.3,0,0,0,0-.6.3.3,0,0,0,0,.6Z"/><path class="cls-6" d="M52.29,16a.3.3,0,0,0,0-.6.3.3,0,0,0,0,.6Z"/><path class="cls-6" d="M52.88,14.79a.3.3,0,0,0,0-.6.3.3,0,0,0,0,.6Z"/><path class="cls-6" d="M53.47,16a.3.3,0,0,0,0-.6.3.3,0,0,0,0,.6Z"/><path class="cls-6" d="M54.66,17.05a.3.3,0,0,0,0-.6.3.3,0,0,0,0,.6Z"/><path class="cls-6" d="M54.68,15.92a.3.3,0,0,0,0-.6.3.3,0,0,0,0,.6Z"/><path class="cls-6" d="M55.9,16a.3.3,0,0,0,0-.6.3.3,0,0,0,0,.6Z"/><path class="cls-6" d="M56.4,14.82a.3.3,0,0,0,0-.6.3.3,0,0,0,0,.6Z"/><path class="cls-6" d="M55.28,14.76a.3.3,0,0,0,0-.6.3.3,0,0,0,0,.6Z"/><path class="cls-6" d="M54.06,14.79a.3.3,0,0,0,0-.6.3.3,0,0,0,0,.6Z"/><path class="cls-6" d="M53.44,13.64a.3.3,0,0,0,0-.6.3.3,0,0,0,0,.6Z"/><path class="cls-6" d="M54.09,12.51a.3.3,0,0,0,0-.6.3.3,0,0,0,0,.6Z"/><path class="cls-6" d="M54.66,13.64a.3.3,0,0,0,0-.6.3.3,0,0,0,0,.6Z"/><path class="cls-6" d="M55.87,13.64a.3.3,0,0,0,0-.6.3.3,0,0,0,0,.6Z"/><path class="cls-6" d="M57.08,13.67a.3.3,0,0,0,0-.6.3.3,0,0,0,0,.6Z"/><path class="cls-6" d="M56.46,12.54a.3.3,0,0,0,0-.6.3.3,0,0,0,0,.6Z"/><path class="cls-6" d="M55.28,12.54a.3.3,0,0,0,0-.6.3.3,0,0,0,0,.6Z"/><path class="cls-6" d="M54.66,11.35a.3.3,0,0,0,0-.6.3.3,0,0,0,0,.6Z"/><path class="cls-6" d="M55.84,11.35a.3.3,0,0,0,0-.6.3.3,0,0,0,0,.6Z"/></g></g></svg>