<svg xmlns="http://www.w3.org/2000/svg" viewBox="0 0 150.4 53"><defs><style>.cls-1{fill:#666;}</style></defs><g id="Layer_2" data-name="Layer 2"><g id="Слой_1" data-name="Слой 1"><path class="cls-1" d="M41.7,46.6l-2.3-2.3,4.8-4.8,2.3,2.3ZM14.9,49.7V45.6H35.2v4.1ZM5.7,10.6,3.5,8.3,8.3,3.5l2.3,2.3Zm6.6-3.2,2.3,2.3L9.8,14.5,7.5,12.2Zm1.4,11.1-2.3-2.3,4.8-4.8,2.3,2.3ZM31.3,17l-3,3L25,16.7,21.7,20l-3-3L25,10.7Zm2.5-5.6,4.8,4.8-2.3,2.3-4.8-4.8Zm5.7-5.7,2.3-2.3,4.8,4.8-2.3,2.3Zm3.1,6.6-2.3,2.3L35.5,9.8l2.3-2.3ZM35.5,40.4l4.8-4.8,2.3,2.3-4.8,4.8ZM22,36.4l-3.3-3.3,3-3L25,33.4l3.3-3.3,3,3L28,36.4l6.8,6.8H15.2Zm-3.5,0-2.3,2.3-4.8-4.8,2.3-2.3ZM23.3,25l-1.6,1.6L20.1,25l1.6-1.6ZM25,29.9l-1.6-1.6L25,26.7l1.6,1.6ZM29.9,25l-1.6,1.6L26.7,25l1.6-1.6Zm1.6,11.4,4.8-4.8,2.3,2.3-4.8,4.8Zm3.6-15.6v8.5L33,31.4l-3-3,3.3-3.3L30,21.8l3-3ZM25,20.1l1.6,1.6L25,23.3l-1.6-1.6Zm-8-1.4,3,3L16.6,25l3.3,3.3-3,3-2.1-2.1V20.7ZM10.6,44.3,8.3,46.6,3.5,41.8l2.3-2.3ZM7.4,37.8l2.3-2.3,4.8,4.8-2.3,2.3Zm42.6,4L37.6,29.3V20.7L50,8.3,41.7,0l-12,12L25,7.2h0L20.3,12,8.3,0l-7,7L0,8.3,12.4,20.7v8.6L0,41.7,8.3,50l4.1-4.1v6.3H37.6V45.9L41.7,50Z"/><path class="cls-1" d="M150.4,33.5V7.5H122.5v26h8.2V14.3h11.5V33.4h8.2Z"/><path class="cls-1" d="M119.3,7.5H110l-5.2,6.8L99.6,7.5H90.3l9.9,12.8L89.9,33.5h9.3l5.6-7.2,5.6,7.2h9.3L109.5,20.3Z"/><path class="cls-1" d="M87.1,33.5V7.5h-8L71.9,17.7,64.7,7.5h-8v26h7.8V19.2l7,9.8h.8l7-9.8V33.5Z"/><path class="cls-1" d="M58.7,39.7l-.6,1.9h1.3Zm1.2,3.7-.2-.7h-2l-.2.7H56l1.9-5h1.6l1.9,5Z"/><path class="cls-1" d="M62.2,43.4v-5h3.7v1.1H63.5v3.9Z"/><path class="cls-1" d="M69.9,40.1a.56.56,0,0,0-.6-.5h-1v1.1h1C69.6,40.6,69.9,40.4,69.9,40.1Zm-3,3.3v-5h2.5a1.7,1.7,0,1,1,0,3.4H68.2v1.7H66.9Z"/><path class="cls-1" d="M75.9,40.9a1.4,1.4,0,1,0-1.4,1.5A1.45,1.45,0,0,0,75.9,40.9Zm-4,0a2.7,2.7,0,0,1,5.4,0,2.7,2.7,0,0,1-5.4,0Z"/><path class="cls-1" d="M78.3,43.4v-5h1.3v5Z"/><path class="cls-1" d="M84.2,43.4v-2H82.1v2H80.8v-5h1.3v1.9h2.1V38.4h1.3v5Z"/><path class="cls-1" d="M88.2,42.3h2V39.5H88.9L88.7,41A1.73,1.73,0,0,1,88.2,42.3Zm-1.7,0c.5-.1.8-.3.9-1.4l.3-2.5h3.7v3.9H92v2.1H90.7v-.9H87.9v.9H86.6V42.3Z"/><path class="cls-1" d="M92.4,43.1l.5-1a1.42,1.42,0,0,0,.6.2.55.55,0,0,0,.6-.4l-1.8-3.6h1.5l1.1,2.3L96,38.3h1.5l-2,4a1.8,1.8,0,0,1-1.7,1.1A1.57,1.57,0,0,1,92.4,43.1Z"/><path class="cls-1" d="M97.8,40.9a2.55,2.55,0,0,1,2.7-2.6,2.38,2.38,0,0,1,2.2,1.3l-1.1.5a1.23,1.23,0,0,0-1.1-.7,1.39,1.39,0,0,0-1.4,1.5,1.45,1.45,0,0,0,1.4,1.5,1.23,1.23,0,0,0,1.1-.7l1.1.5a2.38,2.38,0,0,1-2.2,1.3A2.61,2.61,0,0,1,97.8,40.9Z"/><path class="cls-1" d="M104.8,43.4V39.5h-1.4V38.4h4.1v1.1h-1.4v3.9Z"/><path class="cls-1" d="M111.4,40.1a.56.56,0,0,0-.6-.5h-1v1.1h1C111.1,40.6,111.4,40.4,111.4,40.1Zm-2.9,3.3v-5H111a1.7,1.7,0,1,1,0,3.4h-1.2v1.7h-1.3Z"/><path class="cls-1" d="M113.7,43.4v-5H115v5Z"/><path class="cls-1" d="M118.4,39.7l-.6,1.9h1.3Zm1.3,3.7-.2-.7h-2l-.2.7h-1.5l1.9-5h1.6l1.9,5Z"/><path class="cls-1" d="M121.6,42.3c.5,0,.8-.3.9-1.4l.3-2.5h3.7v5h-1.3V39.5H124l-.2,1.5c-.2,2-1.1,2.5-2.2,2.5Z"/><path class="cls-1" d="M129.1,41.2v1.1h1a.51.51,0,1,0,0-1h-1Zm0-2.8v1.7h1.2a1.7,1.7,0,1,1,0,3.4h-2.5v-5h1.3Z"/><path class="cls-1" d="M136.5,43.4v-2h-2.1v2h-1.3v-5h1.3v1.9h2.1V38.4h1.3v5Z"/><path class="cls-1" d="M139,43.4v-5h1.3v3l2-3h1.3v5h-1.3V40.3l-2.1,3.1Z"/><path class="cls-1" d="M147.3,38.2a1.71,1.71,0,0,1-1.3-.7l.5-.4a.91.91,0,0,0,.8.4,1.23,1.23,0,0,0,.8-.4l.5.4A1.56,1.56,0,0,1,147.3,38.2ZM145,43.4v-5h1.3v3l2-3h1.3v5h-1.3V40.3l-2.1,3.1Z"/><path class="cls-1" d="M59.7,52.1l-1.1-1.7-1.1,1.7H56l1.8-2.6L56.1,47h1.5l1,1.6,1-1.6h1.5l-1.6,2.4L61.2,52H59.7Z"/><path class="cls-1" d="M65.6,49.6a1.4,1.4,0,1,0-1.4,1.5A1.52,1.52,0,0,0,65.6,49.6Zm-4.1,0a2.7,2.7,0,0,1,5.4,0,2.55,2.55,0,0,1-2.7,2.6A2.61,2.61,0,0,1,61.5,49.6Z"/><path class="cls-1" d="M67.4,51c.5,0,.8-.3.9-1.4l.3-2.5h3.7v5H71V48.2H69.7l-.2,1.5c-.2,2-1.1,2.5-2.2,2.5V51Z"/><path class="cls-1" d="M75,50.9h2V48.1H75.7l-.2,1.5A1.45,1.45,0,0,1,75,50.9Zm-1.6.1c.5-.1.8-.3.9-1.4l.3-2.5h3.7V51h.5v2H77.5v-.9H74.7V53H73.4Z"/><path class="cls-1" d="M79.7,52.1v-5H81v3l2-3h1.3v5H83V49l-2,3.1Z"/><path class="cls-1" d="M89,52.1v-2H87v2H85.7v-5H87V49h2V47h1.3v5H89Z"/><path class="cls-1" d="M91.6,52.1v-5h3.7v1.1H92.9v3.9Z"/></g></g></svg>